<svg xmlns="http://www.w3.org/2000/svg" width="154.001" height="66.379" viewBox="0 0 154.001 66.379">
  <g id="Group_438" data-name="Group 438" transform="translate(4.631 180.413)">
    <g id="Group_366" data-name="Group 366" transform="translate(49.941 -122.499)">
      <path id="Path_411" data-name="Path 411" d="M104.818-62.379v3.108h-.679v-3.108l-.2-.187L101.2-59.271h-.887l3.193-3.708-2.939-2.987h.9l2.673,2.831v-2.831h.679v2.831l2.683-2.831h.9l-2.938,2.985,3.188,3.709h-.887l-2.743-3.295Z" transform="translate(-100.31 67.568)" fill="#50bdcb"/>
      <path id="Path_412" data-name="Path 412" d="M123.551-59.271h-.7V-64.4l-4.415,5.133h-.15v-6.695h.669v5.221l4.442-5.221h.15Z" transform="translate(-108.94 67.568)" fill="#50bdcb"/>
      <path id="Path_413" data-name="Path 413" d="M136.49-59.271h-.729l-2.218-5.172-2.255,5.172h-.728l2.913-6.695h.145Z" transform="translate(-114.829 67.568)" fill="#50bdcb"/>
      <path id="Path_414" data-name="Path 414" d="M147.039-66.289a3.475,3.475,0,0,1,2.546,1.015,3.38,3.38,0,0,1,1.025,2.5,3.4,3.4,0,0,1-1.022,2.494,3.39,3.39,0,0,1-2.494,1.024,3.428,3.428,0,0,1-2.514-1.02,3.352,3.352,0,0,1-1.024-2.466,3.563,3.563,0,0,1,.467-1.788,3.4,3.4,0,0,1,1.273-1.29A3.425,3.425,0,0,1,147.039-66.289Zm.03.651a2.755,2.755,0,0,0-1.409.387,2.786,2.786,0,0,0-1.04,1.043,2.9,2.9,0,0,0-.373,1.462,2.733,2.733,0,0,0,.827,2.016,2.727,2.727,0,0,0,1.994.822,2.859,2.859,0,0,0,1.442-.378,2.7,2.7,0,0,0,1.035-1.034,2.9,2.9,0,0,0,.372-1.457,2.83,2.83,0,0,0-.372-1.442,2.768,2.768,0,0,0-1.046-1.032A2.829,2.829,0,0,0,147.069-65.638Z" transform="translate(-121.066 67.723)" fill="#50bdcb"/>
      <path id="Path_415" data-name="Path 415" d="M164.972-60.749h-.7v-5.133l-4.414,5.133h-.151v-6.695h.669v5.221l4.442-5.221h.15Zm-4.242-8.3h.6a.955.955,0,0,0,.414.355,1.477,1.477,0,0,0,.618.119,1.393,1.393,0,0,0,.587-.1,1.174,1.174,0,0,0,.423-.369h.582a1.144,1.144,0,0,1-.512.685,1.922,1.922,0,0,1-1.085.275,1.994,1.994,0,0,1-1.092-.27A1.177,1.177,0,0,1,160.73-69.046Z" transform="translate(-128.82 69.046)" fill="#50bdcb"/>
      <path id="Path_416" data-name="Path 416" d="M177.922-65.966h.683v2.512l2.676-2.512h.9l-3.216,3,3.465,3.691h-.891L178.6-62.389v3.118h-.683Z" transform="translate(-137.562 67.568)" fill="#50bdcb"/>
      <path id="Path_417" data-name="Path 417" d="M191.427-66.289a3.476,3.476,0,0,1,2.546,1.015,3.381,3.381,0,0,1,1.024,2.5,3.4,3.4,0,0,1-1.022,2.494,3.391,3.391,0,0,1-2.494,1.024,3.426,3.426,0,0,1-2.514-1.02,3.35,3.35,0,0,1-1.024-2.466,3.568,3.568,0,0,1,.466-1.788,3.393,3.393,0,0,1,1.273-1.29A3.422,3.422,0,0,1,191.427-66.289Zm.03.651a2.755,2.755,0,0,0-1.409.387,2.781,2.781,0,0,0-1.039,1.043,2.9,2.9,0,0,0-.374,1.462,2.733,2.733,0,0,0,.827,2.016,2.728,2.728,0,0,0,1.994.822,2.861,2.861,0,0,0,1.443-.378,2.7,2.7,0,0,0,1.034-1.034,2.9,2.9,0,0,0,.372-1.457,2.83,2.83,0,0,0-.372-1.442,2.768,2.768,0,0,0-1.046-1.032A2.829,2.829,0,0,0,191.456-65.638Z" transform="translate(-142.371 67.723)" fill="#50bdcb"/>
      <path id="Path_418" data-name="Path 418" d="M203.5-59.271l.958-6.695h.109l2.722,5.493,2.7-5.493h.107l.964,6.695H210.4l-.661-4.788-2.367,4.788H207.2l-2.4-4.824-.657,4.824Z" transform="translate(-149.84 67.568)" fill="#50bdcb"/>
      <path id="Path_419" data-name="Path 419" d="M220.542-65.966h4.746v6.695h-.669v-6.058h-3.408v6.058h-.669Z" transform="translate(-158.018 67.568)" fill="#50bdcb"/>
      <path id="Path_420" data-name="Path 420" d="M237.752-59.271h-.728l-2.218-5.172-2.255,5.172h-.728l2.913-6.695h.146Z" transform="translate(-163.432 67.568)" fill="#50bdcb"/>
      <path id="Path_421" data-name="Path 421" d="M245.4-65.966h3.837v.656h-3.168v2.1h3.14v.656h-3.14v2.63h3.14v.655H245.4Z" transform="translate(-169.947 67.568)" fill="#50bdcb"/>
      <path id="Path_422" data-name="Path 422" d="M255-65.966h.682v2.512l2.677-2.512h.9l-3.216,3,3.466,3.691h-.891l-2.935-3.118v3.118H255Z" transform="translate(-174.555 67.568)" fill="#50bdcb"/>
      <path id="Path_423" data-name="Path 423" d="M271.535-64.878l-.528.4a2.886,2.886,0,0,0-1.049-.862,3.069,3.069,0,0,0-1.344-.293,2.972,2.972,0,0,0-1.484.384,2.754,2.754,0,0,0-1.058,1.033,2.853,2.853,0,0,0-.375,1.458,2.739,2.739,0,0,0,.839,2.044,2.912,2.912,0,0,0,2.119.819,2.979,2.979,0,0,0,2.353-1.1l.528.4a3.371,3.371,0,0,1-1.25.985,3.918,3.918,0,0,1-1.672.348,3.48,3.48,0,0,1-2.772-1.17,3.53,3.53,0,0,1-.851-2.385,3.316,3.316,0,0,1,1.031-2.474,3.554,3.554,0,0,1,2.582-1,3.788,3.788,0,0,1,1.693.371A3.287,3.287,0,0,1,271.535-64.878Z" transform="translate(-179.352 67.723)" fill="#50bdcb"/>
    </g>
    <g id="Group_367" data-name="Group 367" transform="translate(-4.631 -180.413)">
      <path id="Path_424" data-name="Path 424" d="M149.136-135.651q-.734,1.533-1.833,3.6a40.888,40.888,0,0,1-2.433,4,19.145,19.145,0,0,1-2.834,3.3,5.189,5.189,0,0,1-2.966,1.5,3.868,3.868,0,0,1-1.733-.3,3.157,3.157,0,0,1-1.533-1.334,5.693,5.693,0,0,1-.7-2.666,13.517,13.517,0,0,1,.633-4.3q-.8,1.333-2.067,3.1a22.423,22.423,0,0,1-2.733,3.166,7.683,7.683,0,0,1-3.567,2.2,3.342,3.342,0,0,1-2.766-.5,4.688,4.688,0,0,1-1.633-2.633,10.522,10.522,0,0,1-.167-4.233,19.769,19.769,0,0,1,1.633-5.333,25.34,25.34,0,0,1,3.833-5.9,13.639,13.639,0,0,1,3.567-3.066,15.342,15.342,0,0,1,4.266-1.8,9.613,9.613,0,0,1,4.2-.134,6.136,6.136,0,0,1,3.433,1.933,1.216,1.216,0,0,1,.433,1.4.971.971,0,0,1-1.166.533,2.938,2.938,0,0,0-2.166-2.266,4.851,4.851,0,0,0-3.5.6,19.208,19.208,0,0,0-4.666,3.9,35.339,35.339,0,0,0-4.2,5.633q-.2.333-.6,1.067t-.833,1.7q-.433.966-.8,2a10.264,10.264,0,0,0-.5,1.966,3.813,3.813,0,0,0,.234,2.533,1.567,1.567,0,0,0,1.4.8,4.068,4.068,0,0,0,2.1-.767,11.126,11.126,0,0,0,2.4-2.166,40.078,40.078,0,0,0,3.166-4.5q1.433-2.367,2.766-4.833a22.037,22.037,0,0,1,2.033-3.267,2.7,2.7,0,0,1,2.5-1,10.354,10.354,0,0,1,1.367.234,3.468,3.468,0,0,0,1.433.033,12.209,12.209,0,0,0-1.433,1.966q-.9,1.434-1.867,3.267t-1.766,3.766a20.782,20.782,0,0,0-1.134,3.467q-.8,4,.667,4a3.174,3.174,0,0,0,2.333-1.266,23.247,23.247,0,0,0,2.5-3.2q1.233-1.867,2.233-3.767t1.534-2.966q.466-.867.933-.667t0,1.2m-43.4-.667q1.066-1.332,2.367-2.8a36.471,36.471,0,0,1,2.766-2.8,33.323,33.323,0,0,1,3-2.433,14.1,14.1,0,0,1,3.066-1.7,9.389,9.389,0,0,1,4.133-.733,2.584,2.584,0,0,1,2.067,1.133,3.067,3.067,0,0,1,.133,1.534,2.753,2.753,0,0,1-.566,1.266,2.415,2.415,0,0,1-1.1.767,2.309,2.309,0,0,1-1.4.033,1.455,1.455,0,0,0-.767-1.1,3.235,3.235,0,0,0-1.9-.367,9.045,9.045,0,0,0-2.833.733,14.8,14.8,0,0,0-3.433,2.067,20.592,20.592,0,0,0-1.3,7.966,10.363,10.363,0,0,0,1.633,5.433,4.493,4.493,0,0,0,3.533,2.033q2.133.1,4.4-2.3a19.141,19.141,0,0,0,2.633-3.767q1.366-2.433,2.767-5.366.4-.8.8-.5t.067,1.1a47.849,47.849,0,0,1-3.766,7.165,17.439,17.439,0,0,1-3.4,3.933,7.157,7.157,0,0,1-3.133,1.567,11.145,11.145,0,0,1-2.967.133,6.7,6.7,0,0,1-1.9-.433,5.967,5.967,0,0,1-1.833-1.134,8.4,8.4,0,0,1-1.566-1.9,7.627,7.627,0,0,1-.967-2.866,20.526,20.526,0,0,1-.3-3.533,12.85,12.85,0,0,1,.233-2.333q-.867,1.134-1.767,2.4a19.659,19.659,0,0,0-1.566,2.6q-.4.8-.967,2.133t-1.633,3.8a1.574,1.574,0,0,1-.933.866,7.074,7.074,0,0,1-1.6.134q-.733.067-1.233.067a1.95,1.95,0,0,0-1.033.333q2.4-4.8,4.566-9.466t4.633-9.2a14.638,14.638,0,0,1,2.2-3.333,3.216,3.216,0,0,1,2.533-.867,10.283,10.283,0,0,1,1.367.233,3.46,3.46,0,0,0,1.433.034,5.241,5.241,0,0,0-1.367,1.266q-.767.934-1.633,2.233t-1.767,2.833Q106.54-137.918,105.739-136.318Zm-2.933.667q-.8,1.732-1.866,3.833a30.833,30.833,0,0,1-2.4,3.966,15.307,15.307,0,0,1-2.933,3.133,5.388,5.388,0,0,1-3.4,1.267,3.575,3.575,0,0,1-2-.567,3.416,3.416,0,0,1-1.3-1.667,7.4,7.4,0,0,1-.433-2.7,11.515,11.515,0,0,1,.667-3.6q-.867,1.534-1.9,3.033a22.739,22.739,0,0,1-2.2,2.734,11.741,11.741,0,0,1-2.433,2,4.758,4.758,0,0,1-2.467.767,7.587,7.587,0,0,1-1.166-.1,3.737,3.737,0,0,1-1.233-.434,3.9,3.9,0,0,1-1.1-.933,3.5,3.5,0,0,1-.7-1.533,6.486,6.486,0,0,1-.066-2.067,8.756,8.756,0,0,1,.5-1.966,14.175,14.175,0,0,1,.866-1.867q.5-.9.967-1.833a1.128,1.128,0,0,1-.634-.2q-.3-.2.034-.867a9.143,9.143,0,0,0,.6-1.133q.267-.6.6-1.2l2-3.866q1-1.933,1.734-3.467a2.27,2.27,0,0,1,1.033-1.1,3.644,3.644,0,0,1,1.566-.3h4.067a8.492,8.492,0,0,0-1.067.833,11.158,11.158,0,0,0-.967,1.033,12.753,12.753,0,0,0-1.033,1.466,24.707,24.707,0,0,0-1.2,2.267q-.933,1.732-1.666,3.333-.733,1.4-1.4,2.866t-1.133,2.4a13.334,13.334,0,0,0-1.333,4.333,3.248,3.248,0,0,0,.5,2.433,1.586,1.586,0,0,0,1.9.2,8.13,8.13,0,0,0,2.867-2.367,29.059,29.059,0,0,0,2.766-3.8q1.367-2.2,2.634-4.566t2.433-4.7q1.166-2.333,2.1-4.333a2.274,2.274,0,0,1,1.033-1.1,3.647,3.647,0,0,1,1.567-.3h3.6q-.733.6-1.266,1.1a8.033,8.033,0,0,0-1.033,1.2,14.222,14.222,0,0,0-1.033,1.733q-.534,1.034-1.267,2.567-.732,1.4-1.433,2.9t-1.333,2.933q-.633,1.433-1.1,2.666a10.867,10.867,0,0,0-.6,2.1,4.638,4.638,0,0,0,.034,3.033,1.619,1.619,0,0,0,1.233.967,3.756,3.756,0,0,0,2.433-1.067,14.34,14.34,0,0,0,2.367-2.7,34.4,34.4,0,0,0,2.166-3.6q1.034-1.967,1.9-3.766.4-.867.9-.633T102.806-135.651Zm-23.8,0q-.733,1.533-1.834,3.6a40.775,40.775,0,0,1-2.433,4,19.12,19.12,0,0,1-2.833,3.3,5.192,5.192,0,0,1-2.966,1.5,3.87,3.87,0,0,1-1.734-.3,3.157,3.157,0,0,1-1.533-1.334,5.693,5.693,0,0,1-.7-2.666,13.532,13.532,0,0,1,.633-4.3q-.8,1.333-2.067,3.1a22.428,22.428,0,0,1-2.733,3.166,7.682,7.682,0,0,1-3.566,2.2,3.343,3.343,0,0,1-2.767-.5,4.688,4.688,0,0,1-1.633-2.633,10.522,10.522,0,0,1-.167-4.233,19.79,19.79,0,0,1,1.633-5.333,25.323,25.323,0,0,1,3.833-5.9,13.628,13.628,0,0,1,3.566-3.066,15.339,15.339,0,0,1,4.266-1.8,9.618,9.618,0,0,1,4.2-.134,6.137,6.137,0,0,1,3.433,1.933,1.217,1.217,0,0,1,.434,1.4.972.972,0,0,1-1.166.533,2.938,2.938,0,0,0-2.167-2.266,4.851,4.851,0,0,0-3.5.6,19.219,19.219,0,0,0-4.666,3.9,35.4,35.4,0,0,0-4.2,5.633q-.2.333-.6,1.067t-.833,1.7q-.434.966-.8,2a10.267,10.267,0,0,0-.5,1.966,3.813,3.813,0,0,0,.233,2.533,1.568,1.568,0,0,0,1.4.8,4.07,4.07,0,0,0,2.1-.767,11.124,11.124,0,0,0,2.4-2.166,40.01,40.01,0,0,0,3.166-4.5q1.434-2.367,2.767-4.833a22.082,22.082,0,0,1,2.033-3.267,2.7,2.7,0,0,1,2.5-1,10.355,10.355,0,0,1,1.367.234,3.471,3.471,0,0,0,1.434.033,12.2,12.2,0,0,0-1.434,1.966q-.9,1.434-1.866,3.267t-1.767,3.766a20.777,20.777,0,0,0-1.133,3.467q-.8,4,.667,4a3.175,3.175,0,0,0,2.333-1.266,23.247,23.247,0,0,0,2.5-3.2q1.233-1.867,2.234-3.767t1.533-2.966q.467-.867.933-.667T79.008-135.651Zm-32.731-10q-1,1.733-2.133,3.666t-2.166,4.033q-1.034,2.1-1.866,4.266a24.618,24.618,0,0,0-1.234,4.3q-.8,4.2-.1,6.133a2.669,2.669,0,0,0,2.233,2.067,5.8,5.8,0,0,0,3.6-1.267,19.239,19.239,0,0,0,4.066-3.866q1.534-2,3.1-4.466a39.18,39.18,0,0,0,2.7-5c.582-1.164,1.894-1.446,1.133.266-2.114,4.532-5.456,11.559-8.535,15.128-4.248,4.924-11.694,4.81-12.663-3.9a18.657,18.657,0,0,1,.7-6.766,43.151,43.151,0,0,1,4.433-9.933,28.587,28.587,0,0,1-6.633,6.333,13.52,13.52,0,0,1-6.033,2.366,6.135,6.135,0,0,1-4.6-1.3,6.728,6.728,0,0,1-2.2-4.733,17.853,17.853,0,0,1,.266-6.2,38.1,38.1,0,0,1,1.8-5.666q1.133-2.8,2.433-5.8a44.99,44.99,0,0,0,2.234-6.6,41.608,41.608,0,0,0,.9-4.7,23.521,23.521,0,0,0,.2-4.233,10.025,10.025,0,0,0-.7-3.367,4.476,4.476,0,0,0-1.8-2.166,11.326,11.326,0,0,0-4.7-1.566,20.816,20.816,0,0,0-5.6.166C8.33-177.382.154-173.09-4.631-171.239c7.7-6.636,15.952-8.784,19.477-9.043,3.874-.284,7.255-.189,10.233,1.1a10.19,10.19,0,0,1,3.9,2.8,10.375,10.375,0,0,1,2.033,3.933,15.206,15.206,0,0,1,.466,4.8,32.607,32.607,0,0,1-.733,5.333,50.381,50.381,0,0,1-2.234,7.167q-1.3,3.233-2.466,6.033c-1.429,3.429-3.608,9.281-.124,12.069,4.353,3.482,10.638-3.028,12.756-6q.534-.8,1.2-1.667t1.466-1.967q.8-1.1,1.7-2.5t1.9-3.267a10.039,10.039,0,0,1,2.133-2.733,2.935,2.935,0,0,1,1.6-.8,2.12,2.12,0,0,1,1.3,1.767,6.024,6.024,0,0,1-.434,2.6,18.461,18.461,0,0,1-1.466,3Q47.144-147.05,46.277-145.651Z" transform="translate(4.631 180.413)" fill="#007395"/>
    </g>
    <g id="Group_368" data-name="Group 368" transform="translate(74.906 -155.9)">
      <path id="Path_425" data-name="Path 425" d="M148.693-131.727c-.534-.075-.478-.728.031-.826,8.628-1.445,11.84-.412,18.57,2.276,4.522-3.515,11.15-3.4,17.832-2.352.526.029.474.869.011.888-6.933-.372-14.429.118-18.718,5.135-.712.737-1.545.513-1.809-.066a1.439,1.439,0,0,1,.421-1.5c-5.33-3.187-9.865-3.926-16.339-3.552" transform="translate(-148.316 133.275)" fill="#50bdcb" fill-rule="evenodd"/>
    </g>
  </g>
</svg>
