<svg xmlns="http://www.w3.org/2000/svg" width="247.677" height="219" viewBox="0 0 247.677 219">
  <path id="Path_406" data-name="Path 406" d="M103.134,38.9c-.448-.4-1.646-1.246-1.247-2.193.837-1.988,6.018-3.7,8.249-3.855,0,0-5.685-3.042-12.767-6.433A57.651,57.651,0,0,1,84.9,18.84c-2.693-2.094-14.462-3.889-18.95-5.984s-1.995-2.193-4.289-3.091-20.4-7.88-20.845-8.079.15-.748,2.294-1.047a8.933,8.933,0,0,1,3.989.549c.549.05-1.5-.9-1.795-1.1s5.036-.05,14.312.3S82.858,5.226,94.527,3.929,139.709-.958,150.878.638,184.291,11.21,197.756,14.8s28.176,10.422,31.966,10.222,13.513-2.294,15.558-3.591,1.3-2.344,1.3-2.344a5.547,5.547,0,0,1,1.1,3.192,4.472,4.472,0,0,1-2.145,4.188c-1.546,1.146-2.294.549-4.089,1.1s-6.557,1.971-6.557,1.971a3.676,3.676,0,0,0-.6,1.3c-.2.8-1.7.9-2.693,1.894s-1,2.593-1.7,4.689-4.089,4.986-12.666,8.576-21.543,3.989-21.543,3.989,1,7.48,8.778,15.46,31.317,20.445,33.81,23.039-7.878.8-28.125-5.286-46.876-19.449-46.876-19.449-5.585,3.791-14.362,25.733-10.572,43.285-13.366,49.269-29.921,28.523-34.708,34.309-11.171,8.576-36.3,24.535S1.5,219.731.2,218.932,4.194,213.3,4.194,213.3A19.379,19.379,0,0,1,2,212.9c-.349-.149.448-1.3,2.244-3.64s6.433-4.039,6.433-4.039a6.813,6.813,0,0,1-2.195-.6c-.748-.448,0-.549,1.5-2.893s8.528-5.885,8.528-5.885a4.959,4.959,0,0,1-2.294-.848c-1.2-.8.1-.248,1.4-1.944s9.176-6.933,9.176-6.933-.948-.3-1.846-.548-.549-.45.45-2.395S35.711,175.1,35.711,175.1a8.413,8.413,0,0,1-1.894-.3c-.349-.2.149-1.146,2.792-2.793s8.278-4.837,8.428-5.086-.749-.3-1.4-.8,0-.9,2.893-3.84a106.439,106.439,0,0,1,9.525-8.528c.848-.45,3.141.4,3.79.548s-.4-1.247-.748-2.044,0-1.146,2.992-2.643,5.536-3.44,6.533-5.086.2-1.995,1.247-4.039,2.243-1.5,3.141-2.294,0-.4.6-3.391S76.4,131.76,76.4,131.76a18.022,18.022,0,0,1,1-4.089c1-3.192,1.6-1.3,2.1-2.494a13.782,13.782,0,0,0,1.1-3.69c.4-2.094-.3-2.393,1.1-4.687a18.472,18.472,0,0,0,2.494-4.788c.7-2.094-.6-2.293.3-5.086s1.7-.6,1.894-1.1-.6-1,.2-4.388,1.3-.9,1.795-1.9-.8-1.4-.2-3.69,1.995-1.7,2.593-2.694-.4-.7-.1-3.789,2.195-3.291,2.195-3.291a9.627,9.627,0,0,1,.4-2.793c.5-2.294,2.593-3.59,2.693-4.289s-.4-.4-.3-2.094,2.593-2.693,2.893-3.49-.5-1-.2-3.392,2.694-3.192,2.893-3.791-.7-1.7-.25-4.089,2.694-2.693,3.142-3.989-1.1-1.546-.549-4.289a5.1,5.1,0,0,1,2.443-3.64s-2.542-5.387-2.891-6.035a4.461,4.461,0,0,1-1-2.244C102.087,40.847,103.582,39.3,103.134,38.9Z" transform="translate(247.677 219) rotate(180)" fill="#d4f5f9" fill-rule="evenodd" opacity="0.75"/>
</svg>
