<svg xmlns="http://www.w3.org/2000/svg" width="16.08" height="16.08" viewBox="0 0 16.08 16.08">
  <g id="Group_401" data-name="Group 401" transform="translate(0)">
    <path id="Path_290" data-name="Path 290" d="M406.47,392H393.61a1.612,1.612,0,0,0-1.61,1.61v12.86a1.612,1.612,0,0,0,1.61,1.61h12.86a1.612,1.612,0,0,0,1.61-1.61V393.61a1.612,1.612,0,0,0-1.61-1.61Zm-6.43,4.825a3.215,3.215,0,1,1-3.215,3.215,3.221,3.221,0,0,1,3.215-3.215Zm-6.03,9.645a.379.379,0,0,1-.4-.4v-6.835H395.3a2.691,2.691,0,0,0-.082.8,4.825,4.825,0,1,0,9.65,0,2.688,2.688,0,0,0-.082-.8h1.688v6.835a.379.379,0,0,1-.4.4Zm12.46-10.85a.379.379,0,0,1-.4.4h-1.61a.379.379,0,0,1-.4-.4v-1.61a.379.379,0,0,1,.4-.4h1.61a.379.379,0,0,1,.4.4Zm0,0" transform="translate(-392 -392)" fill="#007395"/>
  </g>
</svg>
