<svg xmlns="http://www.w3.org/2000/svg" width="205.692" height="88.66" viewBox="0 0 205.692 88.66">
  <g id="Group_443" data-name="Group 443" transform="translate(4.631 180.413)">
    <g id="Group_366" data-name="Group 366" transform="translate(68.259 -103.06)">
      <path id="Path_411" data-name="Path 411" d="M106.331-61.175v4.151h-.906v-4.151l-.273-.249-3.657,4.4H100.31l4.265-4.953-3.925-3.989h1.2l3.571,3.781v-3.781h.906v3.781l3.583-3.781h1.2l-3.924,3.988,4.258,4.954h-1.185l-3.663-4.4Z" transform="translate(-100.31 68.105)" fill="#58cddc"/>
      <path id="Path_412" data-name="Path 412" d="M125.317-57.024h-.93V-63.88l-5.9,6.856h-.2v-8.942h.894v6.974l5.932-6.974h.2Z" transform="translate(-105.801 68.105)" fill="#58cddc"/>
      <path id="Path_413" data-name="Path 413" d="M138.48-57.024h-.973l-2.963-6.908-3.012,6.908h-.972l3.89-8.942h.194Z" transform="translate(-109.549 68.105)" fill="#58cddc"/>
      <path id="Path_414" data-name="Path 414" d="M148.208-66.289a4.641,4.641,0,0,1,3.4,1.355,4.514,4.514,0,0,1,1.369,3.337,4.534,4.534,0,0,1-1.366,3.33,4.528,4.528,0,0,1-3.331,1.368,4.579,4.579,0,0,1-3.358-1.362,4.476,4.476,0,0,1-1.368-3.294,4.759,4.759,0,0,1,.624-2.389,4.536,4.536,0,0,1,1.7-1.723A4.574,4.574,0,0,1,148.208-66.289Zm.04.869a3.679,3.679,0,0,0-1.882.517,3.721,3.721,0,0,0-1.388,1.393,3.875,3.875,0,0,0-.5,1.953,3.65,3.65,0,0,0,1.105,2.692,3.642,3.642,0,0,0,2.664,1.1,3.819,3.819,0,0,0,1.926-.5,3.606,3.606,0,0,0,1.382-1.381,3.875,3.875,0,0,0,.5-1.946,3.779,3.779,0,0,0-.5-1.925,3.7,3.7,0,0,0-1.4-1.378A3.779,3.779,0,0,0,148.248-65.42Z" transform="translate(-113.518 68.204)" fill="#58cddc"/>
      <path id="Path_415" data-name="Path 415" d="M166.738-57.965h-.931v-6.856l-5.9,6.856h-.2v-8.942h.894v6.974l5.933-6.974h.2Zm-5.666-11.081h.8a1.275,1.275,0,0,0,.554.474,1.973,1.973,0,0,0,.826.158,1.861,1.861,0,0,0,.784-.14,1.568,1.568,0,0,0,.565-.492h.778a1.527,1.527,0,0,1-.683.915,2.567,2.567,0,0,1-1.45.367,2.664,2.664,0,0,1-1.459-.361A1.572,1.572,0,0,1,161.072-69.046Z" transform="translate(-118.452 69.046)" fill="#58cddc"/>
      <path id="Path_416" data-name="Path 416" d="M177.922-65.966h.912v3.356l3.574-3.356h1.2l-4.3,4.012,4.629,4.93h-1.19l-3.919-4.165v4.165h-.912Z" transform="translate(-124.014 68.105)" fill="#58cddc"/>
      <path id="Path_417" data-name="Path 417" d="M192.6-66.289a4.643,4.643,0,0,1,3.4,1.355,4.516,4.516,0,0,1,1.368,3.337A4.536,4.536,0,0,1,196-58.266a4.529,4.529,0,0,1-3.33,1.368,4.576,4.576,0,0,1-3.358-1.362,4.474,4.474,0,0,1-1.368-3.294,4.766,4.766,0,0,1,.623-2.389,4.533,4.533,0,0,1,1.7-1.723A4.57,4.57,0,0,1,192.6-66.289Zm.04.869a3.679,3.679,0,0,0-1.882.517,3.715,3.715,0,0,0-1.388,1.393,3.869,3.869,0,0,0-.5,1.953,3.65,3.65,0,0,0,1.105,2.692,3.643,3.643,0,0,0,2.664,1.1,3.822,3.822,0,0,0,1.927-.5,3.609,3.609,0,0,0,1.382-1.381,3.875,3.875,0,0,0,.5-1.946,3.779,3.779,0,0,0-.5-1.925,3.7,3.7,0,0,0-1.4-1.378A3.778,3.778,0,0,0,192.636-65.42Z" transform="translate(-127.075 68.204)" fill="#58cddc"/>
      <path id="Path_418" data-name="Path 418" d="M203.5-57.024l1.28-8.942h.145l3.635,7.337,3.6-7.337h.143l1.287,8.942h-.877l-.883-6.395-3.162,6.395h-.228l-3.2-6.443-.878,6.443Z" transform="translate(-131.827 68.105)" fill="#58cddc"/>
      <path id="Path_419" data-name="Path 419" d="M220.542-65.966h6.339v8.942h-.893v-8.091h-4.552v8.091h-.894Z" transform="translate(-137.031 68.105)" fill="#58cddc"/>
      <path id="Path_420" data-name="Path 420" d="M239.742-57.024h-.972l-2.963-6.908-3.012,6.908h-.972l3.89-8.942h.2Z" transform="translate(-140.476 68.105)" fill="#58cddc"/>
      <path id="Path_421" data-name="Path 421" d="M245.4-65.966h5.125v.876h-4.231v2.8h4.195v.876h-4.195V-57.9h4.195v.875H245.4Z" transform="translate(-144.622 68.105)" fill="#58cddc"/>
      <path id="Path_422" data-name="Path 422" d="M255-65.966h.911v3.356l3.575-3.356h1.2l-4.3,4.012,4.629,4.93h-1.19l-3.92-4.165v4.165H255Z" transform="translate(-147.555 68.105)" fill="#58cddc"/>
      <path id="Path_423" data-name="Path 423" d="M273.732-64.4l-.7.54a3.855,3.855,0,0,0-1.4-1.152,4.1,4.1,0,0,0-1.8-.392,3.969,3.969,0,0,0-1.982.513,3.679,3.679,0,0,0-1.413,1.38,3.811,3.811,0,0,0-.5,1.948,3.658,3.658,0,0,0,1.121,2.73,3.889,3.889,0,0,0,2.83,1.094,3.979,3.979,0,0,0,3.142-1.471l.7.536a4.5,4.5,0,0,1-1.669,1.316,5.234,5.234,0,0,1-2.233.465,4.648,4.648,0,0,1-3.7-1.562,4.715,4.715,0,0,1-1.136-3.185,4.428,4.428,0,0,1,1.377-3.3,4.747,4.747,0,0,1,3.449-1.34,5.06,5.06,0,0,1,2.262.5A4.39,4.39,0,0,1,273.732-64.4Z" transform="translate(-150.607 68.204)" fill="#58cddc"/>
    </g>
    <g id="Group_367" data-name="Group 367" transform="translate(-4.631 -180.413)">
      <path id="Path_424" data-name="Path 424" d="M200.749-120.626q-.98,2.047-2.448,4.807a54.607,54.607,0,0,1-3.25,5.343,25.57,25.57,0,0,1-3.785,4.407,6.931,6.931,0,0,1-3.962,2,5.166,5.166,0,0,1-2.315-.4,4.216,4.216,0,0,1-2.048-1.782,7.6,7.6,0,0,1-.935-3.561,18.054,18.054,0,0,1,.846-5.743q-1.069,1.781-2.761,4.14a29.95,29.95,0,0,1-3.65,4.229,10.261,10.261,0,0,1-4.764,2.938,4.464,4.464,0,0,1-3.694-.667,6.262,6.262,0,0,1-2.181-3.517,14.054,14.054,0,0,1-.223-5.654,26.4,26.4,0,0,1,2.181-7.123,33.845,33.845,0,0,1,5.12-7.88,18.217,18.217,0,0,1,4.764-4.1,20.492,20.492,0,0,1,5.7-2.4,12.84,12.84,0,0,1,5.609-.179,8.2,8.2,0,0,1,4.586,2.582,1.624,1.624,0,0,1,.579,1.87,1.3,1.3,0,0,1-1.558.712,3.924,3.924,0,0,0-2.894-3.027,6.48,6.48,0,0,0-4.675.8,25.656,25.656,0,0,0-6.232,5.209,47.2,47.2,0,0,0-5.609,7.524q-.268.445-.8,1.425t-1.113,2.271q-.578,1.291-1.069,2.671a13.711,13.711,0,0,0-.667,2.626,5.093,5.093,0,0,0,.312,3.383,2.094,2.094,0,0,0,1.869,1.069,5.434,5.434,0,0,0,2.805-1.024,14.861,14.861,0,0,0,3.206-2.894,53.528,53.528,0,0,0,4.229-6.01q1.914-3.161,3.694-6.455a29.434,29.434,0,0,1,2.716-4.363,3.608,3.608,0,0,1,3.339-1.336,13.83,13.83,0,0,1,1.825.312,4.633,4.633,0,0,0,1.914.044,16.309,16.309,0,0,0-1.914,2.626q-1.2,1.915-2.494,4.363t-2.359,5.03a27.756,27.756,0,0,0-1.514,4.63q-1.068,5.342.891,5.342,1.424.09,3.116-1.691a31.05,31.05,0,0,0,3.339-4.274q1.647-2.493,2.983-5.031t2.048-3.962q.623-1.158,1.247-.89t0,1.6m-57.963-.891q1.424-1.779,3.161-3.74a48.716,48.716,0,0,1,3.694-3.74,44.5,44.5,0,0,1,4.007-3.249,18.838,18.838,0,0,1,4.1-2.271,12.54,12.54,0,0,1,5.521-.979,3.452,3.452,0,0,1,2.76,1.514,4.1,4.1,0,0,1,.178,2.048,3.678,3.678,0,0,1-.756,1.691,3.226,3.226,0,0,1-1.47,1.024,3.084,3.084,0,0,1-1.869.044,1.943,1.943,0,0,0-1.024-1.469,4.322,4.322,0,0,0-2.538-.49,12.081,12.081,0,0,0-3.784.979,19.772,19.772,0,0,0-4.585,2.76,27.5,27.5,0,0,0-1.737,10.64,13.841,13.841,0,0,0,2.182,7.257,6,6,0,0,0,4.719,2.716q2.85.133,5.877-3.072a25.566,25.566,0,0,0,3.517-5.031q1.824-3.25,3.7-7.167.534-1.069,1.068-.668t.089,1.469a63.908,63.908,0,0,1-5.03,9.571,23.293,23.293,0,0,1-4.541,5.254,9.56,9.56,0,0,1-4.184,2.093,14.886,14.886,0,0,1-3.963.178,8.951,8.951,0,0,1-2.538-.579,7.969,7.969,0,0,1-2.448-1.514,11.213,11.213,0,0,1-2.092-2.537,10.186,10.186,0,0,1-1.291-3.829,27.413,27.413,0,0,1-.4-4.719,17.165,17.165,0,0,1,.312-3.117q-1.158,1.515-2.359,3.205a26.261,26.261,0,0,0-2.092,3.473q-.534,1.068-1.291,2.848t-2.182,5.075a2.1,2.1,0,0,1-1.246,1.157,9.449,9.449,0,0,1-2.137.179q-.979.09-1.647.089a2.6,2.6,0,0,0-1.38.445q3.2-6.411,6.1-12.643t6.188-12.286a19.551,19.551,0,0,1,2.939-4.452,4.3,4.3,0,0,1,3.383-1.158,13.73,13.73,0,0,1,1.825.311,4.621,4.621,0,0,0,1.914.045,7,7,0,0,0-1.825,1.691q-1.024,1.247-2.181,2.982t-2.36,3.784Q143.854-123.654,142.786-121.518Zm-3.918.891q-1.069,2.314-2.493,5.119a41.18,41.18,0,0,1-3.206,5.3,20.443,20.443,0,0,1-3.917,4.185,7.2,7.2,0,0,1-4.541,1.692,4.775,4.775,0,0,1-2.671-.757,4.563,4.563,0,0,1-1.736-2.226,9.881,9.881,0,0,1-.578-3.606,15.38,15.38,0,0,1,.89-4.808q-1.158,2.048-2.538,4.051a30.372,30.372,0,0,1-2.938,3.651,15.682,15.682,0,0,1-3.25,2.671,6.355,6.355,0,0,1-3.294,1.025,10.133,10.133,0,0,1-1.558-.133,4.992,4.992,0,0,1-1.648-.579,5.213,5.213,0,0,1-1.469-1.247,4.673,4.673,0,0,1-.935-2.048,8.662,8.662,0,0,1-.088-2.76,11.7,11.7,0,0,1,.668-2.626,18.932,18.932,0,0,1,1.157-2.494q.667-1.2,1.291-2.448a1.507,1.507,0,0,1-.847-.267q-.4-.268.045-1.158a12.215,12.215,0,0,0,.8-1.513q.356-.8.8-1.6l2.671-5.164q1.336-2.582,2.316-4.63a3.032,3.032,0,0,1,1.38-1.469,4.867,4.867,0,0,1,2.092-.4H120.7a11.342,11.342,0,0,0-1.425,1.113,14.9,14.9,0,0,0-1.291,1.38,17.037,17.037,0,0,0-1.38,1.959,32.995,32.995,0,0,0-1.6,3.028q-1.246,2.314-2.225,4.452-.979,1.869-1.87,3.829t-1.513,3.206a17.809,17.809,0,0,0-1.781,5.787,4.338,4.338,0,0,0,.667,3.25q.846.935,2.537.267a10.858,10.858,0,0,0,3.829-3.161,38.814,38.814,0,0,0,3.694-5.075q1.826-2.939,3.518-6.1t3.249-6.278q1.558-3.116,2.8-5.787a3.037,3.037,0,0,1,1.379-1.469,4.871,4.871,0,0,1,2.093-.4H136.2q-.979.8-1.691,1.469a10.731,10.731,0,0,0-1.38,1.6,19,19,0,0,0-1.38,2.314q-.713,1.381-1.692,3.428-.978,1.869-1.914,3.872t-1.781,3.918q-.846,1.914-1.47,3.561a14.517,14.517,0,0,0-.8,2.805q-.622,2.848.045,4.051a2.163,2.163,0,0,0,1.647,1.291,5.017,5.017,0,0,0,3.25-1.425,19.153,19.153,0,0,0,3.161-3.606,45.943,45.943,0,0,0,2.894-4.808q1.38-2.627,2.538-5.03.533-1.159,1.2-.846T138.868-120.626Zm-31.786,0q-.979,2.047-2.449,4.807a54.464,54.464,0,0,1-3.249,5.343,25.537,25.537,0,0,1-3.784,4.407,6.935,6.935,0,0,1-3.962,2,5.169,5.169,0,0,1-2.316-.4,4.216,4.216,0,0,1-2.048-1.782,7.6,7.6,0,0,1-.935-3.561,18.074,18.074,0,0,1,.846-5.743q-1.069,1.781-2.76,4.14a29.956,29.956,0,0,1-3.651,4.229,10.26,10.26,0,0,1-4.763,2.938,4.465,4.465,0,0,1-3.7-.667,6.262,6.262,0,0,1-2.181-3.517,14.053,14.053,0,0,1-.223-5.654,26.433,26.433,0,0,1,2.182-7.123,33.823,33.823,0,0,1,5.12-7.88,18.2,18.2,0,0,1,4.763-4.1,20.488,20.488,0,0,1,5.7-2.4,12.846,12.846,0,0,1,5.61-.179,8.2,8.2,0,0,1,4.585,2.582,1.625,1.625,0,0,1,.579,1.87,1.3,1.3,0,0,1-1.558.712A3.925,3.925,0,0,0,96-133.626a6.48,6.48,0,0,0-4.675.8,25.669,25.669,0,0,0-6.232,5.209,47.285,47.285,0,0,0-5.609,7.524q-.267.445-.8,1.425T77.566-116.4q-.579,1.291-1.068,2.671a13.715,13.715,0,0,0-.668,2.626,5.093,5.093,0,0,0,.312,3.383,2.1,2.1,0,0,0,1.87,1.069,5.436,5.436,0,0,0,2.805-1.024,14.859,14.859,0,0,0,3.2-2.894,53.435,53.435,0,0,0,4.229-6.01q1.915-3.161,3.7-6.455a29.5,29.5,0,0,1,2.715-4.363A3.608,3.608,0,0,1,98-128.729a13.83,13.83,0,0,1,1.825.312,4.636,4.636,0,0,0,1.915.044,16.3,16.3,0,0,0-1.915,2.626q-1.2,1.915-2.492,4.363t-2.36,5.03a27.751,27.751,0,0,0-1.514,4.63q-1.068,5.342.89,5.342,1.424.09,3.117-1.691a31.048,31.048,0,0,0,3.338-4.274q1.647-2.493,2.983-5.031t2.048-3.962q.624-1.158,1.247-.89T107.082-120.626ZM63.364-133.982q-1.336,2.315-2.849,4.9T57.621-123.7q-1.38,2.8-2.493,5.7a32.882,32.882,0,0,0-1.648,5.743q-1.069,5.609-.133,8.191t2.983,2.76A7.747,7.747,0,0,0,61.139-103a25.7,25.7,0,0,0,5.431-5.164q2.048-2.67,4.14-5.965a52.329,52.329,0,0,0,3.606-6.678c.777-1.555,2.53-1.932,1.513.356-2.823,6.053-7.288,15.439-11.4,20.206-5.674,6.577-15.619,6.425-16.914-5.2a24.92,24.92,0,0,1,.935-9.037,57.635,57.635,0,0,1,5.921-13.266,38.183,38.183,0,0,1-8.859,8.459,18.058,18.058,0,0,1-8.058,3.16,8.2,8.2,0,0,1-6.144-1.736q-2.493-2.048-2.938-6.322a23.845,23.845,0,0,1,.356-8.28,50.877,50.877,0,0,1,2.4-7.568q1.513-3.739,3.249-7.747a60.092,60.092,0,0,0,2.983-8.814,55.572,55.572,0,0,0,1.2-6.278,31.415,31.415,0,0,0,.267-5.653,13.391,13.391,0,0,0-.935-4.5,5.978,5.978,0,0,0-2.4-2.894,15.128,15.128,0,0,0-6.277-2.092,27.8,27.8,0,0,0-7.479.222c-9.059,1.424-19.979,7.157-26.37,9.63,10.28-8.864,21.306-11.733,26.014-12.078,5.174-.379,9.691-.252,13.667,1.469a13.609,13.609,0,0,1,5.209,3.74,13.858,13.858,0,0,1,2.716,5.253,20.31,20.31,0,0,1,.623,6.41,43.551,43.551,0,0,1-.979,7.123,67.294,67.294,0,0,1-2.984,9.572q-1.735,4.319-3.294,8.058c-1.908,4.58-4.82,12.4-.165,16.12,5.814,4.651,14.209-4.044,17.037-8.017q.713-1.069,1.6-2.226t1.959-2.627q1.069-1.469,2.271-3.339t2.538-4.363a13.409,13.409,0,0,1,2.848-3.65,3.92,3.92,0,0,1,2.137-1.069,2.832,2.832,0,0,1,1.736,2.359,8.047,8.047,0,0,1-.579,3.473,24.657,24.657,0,0,1-1.959,4.006Q64.522-135.852,63.364-133.982Z" transform="translate(4.631 180.413)" fill="#fff"/>
    </g>
    <g id="Group_368" data-name="Group 368" transform="translate(101.603 -147.672)">
      <path id="Path_425" data-name="Path 425" d="M148.819-131.208c-.713-.1-.638-.972.042-1.1,11.524-1.93,15.813-.55,24.8,3.039,6.039-4.695,14.893-4.547,23.818-3.141.7.038.633,1.161.015,1.186-9.259-.5-19.272.157-25,6.858-.952.985-2.064.686-2.416-.088a1.922,1.922,0,0,1,.563-2.008c-7.119-4.257-13.176-5.243-21.824-4.744" transform="translate(-148.316 133.275)" fill="#58cddc" fill-rule="evenodd"/>
    </g>
  </g>
</svg>
