<svg xmlns="http://www.w3.org/2000/svg" width="18" height="16.5" viewBox="0 0 18 16.5">
  <path id="Path_429" data-name="Path 429" d="M16.5,21.333H1.5a1.5,1.5,0,0,0-1.5,1.5v10.5a1.5,1.5,0,0,0,1.5,1.5H6.752a3.39,3.39,0,0,1-.559,2.007.737.737,0,0,1-.568.243.375.375,0,1,0,0,.75h6.75a.375.375,0,1,0,0-.75.734.734,0,0,1-.567-.242,3.4,3.4,0,0,1-.559-2.008H16.5a1.5,1.5,0,0,0,1.5-1.5v-10.5A1.5,1.5,0,0,0,16.5,21.333ZM9,34.085a.752.752,0,1,1,.752-.752A.753.753,0,0,1,9,34.085ZM1.5,31.833v-9h15v9Z" transform="translate(0 -21.333)" fill="#007395"/>
</svg>
