<svg xmlns="http://www.w3.org/2000/svg" width="100" height="14.301" viewBox="0 0 100 14.301">
  <g id="Group_150" data-name="Group 150" transform="translate(-224.368 -409.002)">
    <path id="Path_38" data-name="Path 38" d="M261.412,430.708c6.161-3.5,12.544-6.422,19.879-4.808a38.866,38.866,0,0,1,8.07,2.975c9.464,4.461,18.294,2.456,26.958-2.341a20.424,20.424,0,0,0,16.029,4.894c5.678-.583,11.284-1.854,16.393-2.732-9.882,4.909-20.435,7.794-31.755,2.391a4,4,0,0,0-2.979-.081,32.356,32.356,0,0,1-25.194,1.053,76.351,76.351,0,0,0-12.079-3.428c-5.238-.97-10.316.456-15.321,2.077" transform="translate(-24.372 -10.817)" fill="#007395" fill-rule="evenodd"/>
    <path id="Path_39" data-name="Path 39" d="M224.368,416.554a20.418,20.418,0,0,0,9.983-1.417c3.156-1.32,6.283-2.715,9.388-4.151,5.662-2.619,11.228-2.782,16.787.332,1.965,1.1,4.056,1.977,6.09,2.954,5.444,2.615,11.094,2.651,16.86,1.366-5.95,2.142-11.936,2.776-18,.51-.874-.327-1.768-.613-2.612-1.006-7.239-3.367-14.4-3.177-21.631.153-3.684,1.7-7.555,3.028-11.734,2.442-1.731-.242-3.419-.78-5.127-1.183" transform="translate(0)" fill="#007395" fill-rule="evenodd"/>
  </g>
</svg>
