<svg xmlns="http://www.w3.org/2000/svg" width="20.358" height="14.472" viewBox="0 0 20.358 14.472">
  <path id="Path_408" data-name="Path 408" d="M413.186,399.393c-.111-1.355-.919-3.064-2.578-3.126a103.835,103.835,0,0,0-14.857,0c-1.465.161-2.465,1.944-2.578,3.305a39,39,0,0,0,0,7.314c.113,1.354,1.088,3.143,2.578,3.336a110.522,110.522,0,0,0,14.857,0c1.443-.255,2.467-1.982,2.578-3.336a40.667,40.667,0,0,0,0-7.493Zm-12.55,7.443v-7.295L407,403.188Zm0,0" transform="translate(-393.001 -396)" fill="#007395"/>
</svg>
